<svg width="253" height="161" viewBox="0 0 253 161" fill="none" xmlns="http://www.w3.org/2000/svg">
<path fill-rule="evenodd" clip-rule="evenodd" d="M64.0736 75.8137C64.0328 64.7682 55.0453 55.8555 43.9998 55.9069C32.9536 55.9583 24.0332 64.9543 24.0741 75.9999C24.115 87.0454 33.1016 95.9581 44.1479 95.9066C55.1934 95.8552 64.1145 86.8592 64.0736 75.8137ZM43.9996 30.8174C68.2994 30.7165 88.081 50.3338 88.1819 74.6344C88.2827 98.935 68.6646 118.716 44.3648 118.817C20.0642 118.917 0.283462 99.3002 0.182609 74.9996C0.0817556 50.699 19.699 30.9182 43.9996 30.8174Z" fill="#FFC735"/>
<path fill-rule="evenodd" clip-rule="evenodd" d="M115.066 86.0054C150.557 85.8403 179.208 53.4356 179.061 13.627C179.033 6.16321 184.405 0.0870466 191.06 0.0560791C197.714 0.0251115 203.131 6.05107 203.159 13.5149C203.361 68.2511 163.965 112.808 115.166 113.035C108.512 113.066 103.095 107.04 103.068 99.5764C103.04 92.1126 108.412 86.0364 115.066 86.0054Z" fill="#B4D51E"/>
<path d="M136.893 133.762C187.409 133.527 228.191 87.4024 227.981 30.7407C227.953 23.2854 233.319 17.2161 239.966 17.1852C246.613 17.1543 252.024 23.1734 252.051 30.6287C252.316 102.202 200.803 160.464 136.993 160.761C130.347 160.792 124.936 154.773 124.908 147.318C124.88 139.862 130.247 133.793 136.893 133.762Z" fill="#E5E0D5"/>
</svg>
